<svg xmlns="http://www.w3.org/2000/svg" version="1.1" xmlns:xlink="http://www.w3.org/1999/xlink" xmlns:svgjs="http://svgjs.dev/svgjs" viewBox="0 0 800 800"><g transform="matrix(1,0,0,1,0,0)"><path d="M680.1510035722558 628.487066304502C682.532762561744 627.1122047805118 685.467237438256 627.1122047805118 687.8489964277442 628.4874512041448L730.1510067672236 652.9104882371098C732.5327657567117 654.2853497611 734.0000031949678 656.8268421023395 734.0000031949678 659.5769500499628V708.4230241158928C734.0000031949678 711.1731320635159 732.5327657567117 713.7146244047555 730.1510067672236 715.0898708283884L687.8489964277442 739.5129078613534C685.467237438256 740.8877693853436 682.532762561744 740.8877693853436 680.1510035722558 739.5125229617106L637.8489932327764 715.0894859287456C635.4672342432883 713.7146244047555 633.9999968050322 711.1731320635159 633.9999968050322 708.4230241158928V659.5769500499628C633.9999968050322 656.8268421023395 635.4672342432883 654.2853497611 637.8489932327764 652.910103337467L680.1510035722558 628.487066304502Z " stroke-width="4" stroke="#d75692" fill="none" opacity="0.1" transform="rotate(100, 400, 400)"></path><path d="M655.8428425872282 595.5682529228793C658.6215614082976 593.9642478115575 662.0451154308952 593.9642478115575 664.8238342519646 595.5687019724626L714.1761796480239 624.0622451775885C716.9548984690933 625.6662502889103 718.6666754803921 628.6313246870232 718.6666754803921 631.8397839592501V688.8268703695019C718.6666754803921 692.0353296417289 716.9548984690933 695.0004040398417 714.1761796480239 696.6048582007468L664.8238342519646 725.0984014058727C662.0451154308952 726.7024065171945 658.6215614082976 726.7024065171945 655.8428425872282 725.0979523562894L606.490497191169 696.6044091511635C603.7117783700994 695.0004040398417 602.0000013588008 692.0353296417289 602.0000013588008 688.8268703695019V631.8397839592501C602.0000013588008 628.6313246870232 603.7117783700994 625.6662502889103 606.490497191169 624.0617961280052L655.8428425872282 595.5682529228793Z " stroke-width="5" stroke="#d05d9e" fill="none" opacity="0.175" transform="rotate(91.66666666666667, 400, 400)"></path><path d="M631.5346663434113 562.6494395412566C634.7103449960622 560.8162908426029 638.6229781647451 560.8162908426029 641.7986568173958 562.6499527407802L698.2013372700351 595.2140021180669C701.3770159226858 597.0471508167205 703.3333325070273 600.4358072717066 703.3333325070273 604.1026178685374V669.2307166231108C703.3333325070273 672.8975272199418 701.3770159226858 676.2861836749278 698.2013372700351 678.1198455731051L641.7986568173958 710.6838949503917C638.6229781647451 712.5170436490454 634.7103449960622 712.5170436490454 631.5346663434113 710.6833817508681L575.1319858907722 678.1193323735813C571.9563072381213 676.2861836749278 569.99999065378 672.8975272199418 569.99999065378 669.2307166231108V604.1026178685374C569.99999065378 600.4358072717066 571.9563072381213 597.0471508167205 575.1319858907722 595.2134889185432L631.5346663434113 562.6494395412566Z " stroke-width="6" stroke="#c964a9" fill="none" opacity="0.25" transform="rotate(83.33333333333333, 400, 400)"></path><path d="M607.2265053583837 529.7306337890284C610.7991438426159 527.6683415030432 615.2008561573841 527.6683415030432 618.7734946416163 529.7312111384927L682.2265101508353 566.3657666879401C685.7991486350675 568.4280589739254 688.0000047924516 572.2402974857846 688.0000047924516 576.3654594072195V649.6345705061144C688.0000047924516 653.7597324275494 685.7991486350675 657.5719709394085 682.2265101508353 659.634840574858L618.7734946416163 696.2693961243056C615.2008561573841 698.3316884102908 610.7991438426159 698.3316884102908 607.2265053583837 696.2688187748414L543.7734898491647 659.6342632253939C540.2008513649325 657.5719709394085 537.9999952075484 653.7597324275494 537.9999952075484 649.6345705061144V576.3654594072195C537.9999952075484 572.2402974857846 540.2008513649325 568.4280589739254 543.7734898491647 566.365189338476L607.2265053583837 529.7306337890284Z " stroke-width="7" stroke="#c26ab4" fill="none" opacity="0.32499999999999996" transform="rotate(75, 400, 400)"></path><path d="M582.9183291145671 496.8117975192222C586.8879274303806 494.52036164590515 591.7787188912341 494.52036164590515 595.7483172070476 496.81243901862683L666.2516677728466 537.5175007402352C670.2212660886601 539.8089366135522 672.6666618190869 544.0447571822847 672.6666618190869 548.6282704283233V630.0383938715399C672.6666618190869 634.6219071175788 670.2212660886601 638.8577276863111 666.2516677728466 641.1498050590328L595.7483172070476 681.8548667806411C591.7787188912341 684.1463026539582 586.8879274303806 684.1463026539582 582.9183291145671 681.8542252812365L512.414978548768 641.1491635596282C508.44538023295456 638.8577276863111 505.99998450252775 634.6219071175788 505.99998450252775 630.0383938715399V548.6282704283233C505.99998450252775 544.0447571822847 508.44538023295456 539.8089366135522 512.414978548768 537.5168592408305L582.9183291145671 496.8117975192222Z " stroke-width="8" stroke="#ba70bd" fill="none" opacity="0.4" transform="rotate(66.66666666666666, 400, 400)"></path><path d="M558.6101681295393 463.8929688788103C562.9767262769342 461.37238941816156 568.3565968838731 461.37238941816156 572.7231550312679 463.89367452815543L650.2768406536468 508.6692424219246C654.6433988010417 511.1898218825733 657.3333341045111 515.8492245081791 657.3333341045111 520.8910890788216V610.44222486636C657.3333341045111 615.4840894370025 654.6433988010417 620.1434920626082 650.2768406536468 622.664777172602L572.7231550312679 667.4403450663712C568.3565968838731 669.9609245270199 562.9767262769342 669.9609245270199 558.6101681295393 667.4396394170261L481.0564825071604 622.664071523257C476.68992435976554 620.1434920626082 473.9999890562961 615.4840894370025 473.9999890562961 610.44222486636V520.8910890788216C473.9999890562961 515.8492245081791 476.68992435976554 511.1898218825733 481.0564825071604 508.6685367725795L558.6101681295393 463.8929688788103Z " stroke-width="9" stroke="#b276c7" fill="none" opacity="0.475" transform="rotate(58.33333333333333, 400, 400)"></path><path d="M534.3020071445117 430.97415549718767C539.0655251234879 428.22443244920726 544.9344748765121 428.22443244920726 549.6979928554883 430.9749252964732L634.3020135344472 479.8209993624032C639.0655315134234 482.57072241038367 642.0000063899355 487.6537070928626 642.0000063899355 493.153922988109V590.8460711199691C642.0000063899355 596.3462870152155 639.0655315134234 601.4292716976945 634.3020135344472 604.1797645449603L549.6979928554883 653.0258386108903C544.9344748765121 655.7755616588709 539.0655251234879 655.7755616588709 534.3020071445117 653.0250688116048L449.69798646555284 604.1789947456748C444.9344684865767 601.4292716976945 441.9999936100645 596.3462870152155 441.9999936100645 590.8460711199691V493.153922988109C441.9999936100645 487.6537070928626 444.9344684865767 482.57072241038367 449.69798646555284 479.82022956311766L534.3020071445117 430.97415549718767Z " stroke-width="10" stroke="#aa7bd0" fill="none" opacity="0.5499999999999999" transform="rotate(50, 400, 400)"></path><path d="M509.9938309006949 398.05532685677576C515.1543087112524 395.07646022146366 521.512337610362 395.07646022146366 526.6728154209195 398.0561608060018L618.3271711564583 450.9727410440927C623.4876489670158 453.9516076794048 626.6666634165706 459.458174418757 626.6666634165706 465.4167416386073V571.2499021147889C626.6666634165706 577.2084693346393 623.4876489670158 582.7150360739915 618.3271711564583 585.6947366585296L526.6728154209195 638.6113168966205C521.512337610362 641.5901835319326 515.1543087112524 641.5901835319326 509.9938309006949 638.6104829473945L418.33947516515616 585.6939027093036C413.1789973545986 582.7150360739915 409.9999829050438 577.2084693346393 409.9999829050438 571.2499021147889V465.4167416386073C409.9999829050438 459.458174418757 413.1789973545986 453.9516076794048 418.33947516515616 450.97190709486665L509.9938309006949 398.05532685677576Z " stroke-width="11" stroke="#a180d8" fill="none" opacity="0.625" transform="rotate(41.666666666666664, 400, 400)"></path><path d="M485.68566991566723 365.13653636333675C491.24310755780607 361.9285261406929 498.0902156030011 361.9285261406929 503.64765324513996 365.13743446250317L602.3523440372586 422.1245208727549C607.9097816793975 425.33253109539874 611.333335701995 431.26267989162415 611.333335701995 437.6795984360783V551.6537712565816C611.333335701995 558.0706898010359 607.9097816793975 564.0008385972613 602.3523440372586 567.2097469190717L503.64765324513996 624.1968333293233C498.0902156030011 627.4048435519671 491.24310755780607 627.4048435519671 485.68566991566723 624.1959352301568L386.9809791235486 567.2088488199051C381.42354148140976 564.0008385972613 377.9999874588122 558.0706898010359 377.9999874588122 551.6537712565816V437.6795984360783C377.9999874588122 431.26267989162415 381.42354148140976 425.33253109539874 386.9809791235486 422.1236227735884L485.68566991566723 365.13653636333675Z " stroke-width="12" stroke="#9885e1" fill="none" opacity="0.7" transform="rotate(33.33333333333333, 400, 400)"></path><path d="M461.3775089306396 332.21770772292496C467.3319064043598 328.7805539129495 474.6680935956402 328.7805539129495 480.6224910693604 332.21866997203193L586.377516918059 393.27626255444443C592.3319143917792 396.71341636441997 596.0000079874194 403.06714721751865 596.0000079874194 409.9424170865767V532.0576022514017C596.0000079874194 538.9328721204597 592.3319143917792 545.2866029735585 586.377516918059 548.7247190326409L480.6224910693604 609.7823116150535C474.6680935956402 613.2194654250291 467.3319064043598 613.2194654250291 461.3775089306396 609.7813493659464L355.6224830819411 548.723756783534C349.66808560822085 545.2866029735585 345.99999201258066 538.9328721204597 345.99999201258066 532.0576022514017V409.9424170865767C345.99999201258066 403.06714721751865 349.66808560822085 396.71341636441997 355.6224830819411 393.2753003053375L461.3775089306396 332.21770772292496Z " stroke-width="13" stroke="#8e8ae9" fill="none" opacity="0.7749999999999999" transform="rotate(25, 400, 400)"></path><path d="M437.06933268682286 299.2988638237241C443.42068999212444 295.63256642641693 451.2459563294902 295.63256642641693 457.59731363479176 299.2998902227715L570.4026745400702 364.4279889773449C576.7540318453716 368.09428637465214 580.6666650140546 374.87159928462404 580.6666650140546 382.205220478286V512.4614179874327C580.6666650140546 519.7950391810946 576.7540318453716 526.5723520910665 570.4026745400702 530.2396758874211L457.59731363479176 595.3677746419944C451.2459563294902 599.0340720393017 443.42068999212444 599.0340720393017 437.06933268682286 595.3667482429471L324.2639717815444 530.2386494883738C317.9126144762429 526.5723520910665 313.99998130755995 519.7950391810946 313.99998130755995 512.4614179874327V382.205220478286C313.99998130755995 374.87159928462404 317.9126144762429 368.09428637465214 324.2639717815444 364.4269625782975L437.06933268682286 299.2988638237241Z " stroke-width="14" stroke="#838ef0" fill="none" opacity="0.85" transform="rotate(16.666666666666657, 400, 400)"></path><path d="M412.76118696058427 266.3800351833123C419.50950409746713 262.4845941986734 427.82384958091825 262.4845941986734 434.5721667178011 266.38112573230023L554.4278626796595 335.5797306590344C561.1761798165425 339.4751716436734 565.333352558268 346.67606661051855 565.333352558268 354.4680391287843V492.86524898225275C565.333352558268 500.6572215005185 561.1761798165425 507.8581164673637 554.4278626796595 511.7546480009904L434.5721667178011 580.9532529277246C427.82384958091825 584.8486939123635 419.50950409746713 584.8486939123635 412.76118696058427 580.9521623787367L292.9054909987259 511.7535574520026C286.157173861843 507.8581164673637 282.0000011201174 500.6572215005185 282.0000011201174 492.86524898225275V354.4680391287843C282.0000011201174 346.67606661051855 286.157173861843 339.4751716436734 292.9054909987259 335.5786401100466L412.76118696058427 266.3800351833123Z " stroke-width="15" stroke="#7893f8" fill="none" opacity="0.9249999999999999" transform="rotate(8.333333333333329, 400, 400)"></path><path d="M388.4530107167675 233.46125231926777C395.59828768523175 229.33666774729716 404.40171231476825 229.33666774729716 411.5469892832325 233.46240701819613L538.4530203016707 306.7315181170911C545.5982972701349 310.8561026890618 550.0000095849032 318.48057971278024 550.0000095849032 326.7309035556499V473.2691257534399C550.0000095849032 481.5194495963096 545.5982972701349 489.14392662002797 538.4530203016707 493.26966589092694L411.5469892832325 566.538776989822C404.40171231476825 570.6633615617925 395.59828768523175 570.6633615617925 388.4530107167675 566.5376222908938L261.54697969832927 493.26851119199864C254.401702729865 489.14392662002797 249.99999041509682 481.5194495963096 249.99999041509682 473.2691257534399V326.7309035556499C249.99999041509682 318.48057971278024 254.401702729865 310.8561026890618 261.54697969832927 306.7303634181629L388.4530107167675 233.46125231926777Z " stroke-width="16" stroke="#6b97ff" fill="none" opacity="0.9999999999999999" transform="rotate(0, 400, 400)"></path></g></svg>